<?xml version="1.0" encoding="utf-8"?>
<!-- Generator: Adobe Illustrator 19.2.0, SVG Export Plug-In . SVG Version: 6.00 Build 0)  -->
<svg version="1.1" id="Capa_1" xmlns="http://www.w3.org/2000/svg" xmlns:xlink="http://www.w3.org/1999/xlink" x="0px" y="0px"
	 viewBox="0 0 200 200" style="enable-background:new 0 0 200 200;" xml:space="preserve">
<style type="text/css">
	.st0{fill:#FFFFFF;}
</style>
<g>
	<path class="st0" d="M175.8,80.2L131.7,36c-1.1-1.1-2.4-1.6-3.9-1.6c-1.5,0-2.8,0.5-3.9,1.6c-1.1,1.1-1.6,2.4-1.6,3.9V62H103
		c-41,0-66.1,11.6-75.4,34.7c-3,7.7-4.6,17.3-4.6,28.7c0,9.5,3.6,22.5,10.9,38.9c0.2,0.4,0.5,1.1,0.9,2.1c0.4,1,0.8,1.8,1.2,2.6
		c0.3,0.7,0.7,1.4,1.1,1.9c0.7,1,1.5,1.5,2.4,1.5c0.9,0,1.5-0.3,2-0.9c0.5-0.6,0.7-1.3,0.7-2.2c0-0.5-0.1-1.3-0.2-2.3
		c-0.1-1-0.2-1.7-0.2-2c-0.3-3.9-0.4-7.4-0.4-10.6c0-5.8,0.5-11,1.5-15.6c1-4.6,2.4-8.6,4.2-11.9c1.8-3.4,4.1-6.3,6.9-8.7
		c2.8-2.4,5.8-4.4,9.1-6c3.2-1.6,7.1-2.8,11.5-3.7c4.4-0.9,8.8-1.5,13.3-1.9c4.5-0.3,9.5-0.5,15.1-0.5h19.3v22.1
		c0,1.5,0.5,2.8,1.6,3.9c1.1,1.1,2.4,1.6,3.9,1.6c1.5,0,2.8-0.5,3.9-1.6l44.1-44.1c1.1-1.1,1.6-2.4,1.6-3.9
		C177.4,82.6,176.9,81.3,175.8,80.2z"/>
</g>
</svg>
