<svg id="Capa_1" data-name="Capa 1" xmlns="http://www.w3.org/2000/svg" viewBox="0 0 300 300"><defs><style>.cls-1{fill:#fff;}</style></defs><title>i</title><path class="cls-1" d="M260.92,206,227.6,172.68c-6.64-6.61-17.63-6.41-24.5.46l-16.78,16.78c-1.07-.58-2.16-1.2-3.32-1.84-10.6-5.88-25.11-13.93-40.37-29.21S119.26,129,113.36,118.42c-.62-1.12-1.21-2.2-1.8-3.23l11.26-11.25,5.54-5.55c6.88-6.88,7.07-17.86.45-24.49L95.49,40.57C88.87,34,77.87,34.15,71,41l-9.4,9.44.26.26a54.33,54.33,0,0,0-7.74,13.65,56.51,56.51,0,0,0-3.44,13.84C46.28,114.7,63,148,108.18,193.27c62.53,62.52,112.92,57.8,115.09,57.56a56,56,0,0,0,13.88-3.48,54.14,54.14,0,0,0,13.6-7.71l.21.18,9.51-9.31C267.34,223.63,267.54,212.64,260.92,206Z"/></svg>