<?xml version="1.0" encoding="utf-8"?>
<!-- Generator: Adobe Illustrator 19.2.0, SVG Export Plug-In . SVG Version: 6.00 Build 0)  -->
<svg version="1.1" id="Capa_1" xmlns="http://www.w3.org/2000/svg" xmlns:xlink="http://www.w3.org/1999/xlink" x="0px" y="0px"
	 viewBox="0 0 200 200" style="enable-background:new 0 0 200 200;" xml:space="preserve">
<style type="text/css">
	.st0{fill:#FFFFFF;}
</style>
<g>
	<path class="st0" d="M135.8,20.2H64.5c-24.2,0-43.9,19.7-43.9,43.9v71.3c0,24.2,19.7,43.9,43.9,43.9h71.3
		c24.2,0,43.9-19.7,43.9-43.9V64.1C179.7,39.9,160,20.2,135.8,20.2z M165.6,135.4c0,16.4-13.4,29.8-29.8,29.8H64.5
		c-16.4,0-29.8-13.4-29.8-29.8V64.1c0-16.4,13.4-29.8,29.8-29.8h71.3c16.4,0,29.8,13.4,29.8,29.8L165.6,135.4L165.6,135.4z"/>
	<path class="st0" d="M100.1,58.8c-22.6,0-41,18.4-41,41c0,22.6,18.4,41,41,41s41-18.4,41-41C141.2,77.2,122.8,58.8,100.1,58.8z
		 M100.1,126.7c-14.8,0-26.9-12.1-26.9-26.9c0-14.8,12.1-26.9,26.9-26.9S127,85,127,99.8C127,114.6,115,126.7,100.1,126.7z"/>
	<path class="st0" d="M142.9,46.8c-2.7,0-5.4,1.1-7.3,3c-1.9,1.9-3,4.6-3,7.3c0,2.7,1.1,5.4,3,7.3c1.9,1.9,4.6,3,7.3,3
		c2.7,0,5.4-1.1,7.3-3c1.9-1.9,3-4.6,3-7.3c0-2.7-1.1-5.4-3-7.3C148.3,47.9,145.6,46.8,142.9,46.8z"/>
</g>
</svg>
