<?xml version="1.0" encoding="utf-8"?>
<!-- Generator: Adobe Illustrator 19.2.0, SVG Export Plug-In . SVG Version: 6.00 Build 0)  -->
<svg version="1.1" id="Capa_1" xmlns="http://www.w3.org/2000/svg" xmlns:xlink="http://www.w3.org/1999/xlink" x="0px" y="0px"
	 viewBox="0 0 200 200" style="enable-background:new 0 0 200 200;" xml:space="preserve">
<style type="text/css">
	.st0{fill:#FFFFFF;}
</style>
<g>
	<g>
		<path class="st0" d="M83,144.1l-6.9,6.9c-6,5.9-15.7,5.9-21.7,0c-2.9-2.9-4.5-6.7-4.5-10.7s1.6-7.8,4.5-10.7l25.4-25.2
			c5.3-5.2,15.2-12.9,22.4-5.8c3.3,3.3,8.7,3.3,12,0c3.3-3.3,3.3-8.7,0-12c-12.3-12.2-30.5-9.9-46.3,5.8l-25.4,25.2
			c-6.1,6.1-9.5,14.1-9.5,22.7c0,8.6,3.4,16.6,9.5,22.7c6.3,6.2,14.5,9.3,22.8,9.3c8.3,0,16.5-3.1,22.8-9.4l6.9-6.9
			c3.3-3.3,3.3-8.7,0-12C91.7,140.8,86.3,140.8,83,144.1z M160.1,46c-13.2-13.1-31.7-13.8-43.9-1.7l-8.6,8.6c-3.3,3.3-3.3,8.7,0,12
			s8.7,3.3,12,0l8.6-8.5c6.3-6.3,14.6-3.7,20,1.7c2.9,2.9,4.5,6.7,4.5,10.7c0,4-1.6,7.8-4.5,10.7L121,106.3
			c-12.4,12.3-18.2,6.5-20.7,4.1c-3.3-3.3-8.7-3.3-12,0c-3.3,3.3-3.3,8.7,0,12c5.7,5.7,12.2,8.5,19,8.5c8.3,0,17.2-4.2,25.6-12.5
			l27.1-26.9c6.1-6.1,9.5-14.1,9.5-22.7C169.6,60.1,166.2,52.1,160.1,46z"/>
	</g>
</g>
</svg>
