<?xml version="1.0" encoding="utf-8"?>
<!-- Generator: Adobe Illustrator 19.2.0, SVG Export Plug-In . SVG Version: 6.00 Build 0)  -->
<svg version="1.1" id="Capa_1" xmlns="http://www.w3.org/2000/svg" xmlns:xlink="http://www.w3.org/1999/xlink" x="0px" y="0px"
	 viewBox="0 0 200 200" style="enable-background:new 0 0 200 200;" xml:space="preserve">
<style type="text/css">
	.st0{fill:#FFFFFF;stroke:#FFFFFF;stroke-width:3;stroke-miterlimit:10;}
</style>
<g>
	<path class="st0" d="M100.8,20.7c-42,0-76.3,34.3-76.3,76.3s34.3,76.3,76.3,76.3S177.1,139,177.1,97S142.8,20.7,100.8,20.7z
		 M100.8,167.4c-38.7,0-70.4-31.7-70.4-70.4s31.7-70.4,70.4-70.4s70.4,31.7,70.4,70.4S139.6,167.4,100.8,167.4z"/>
	<path class="st0" d="M129.3,68.5c-1.2-1.2-2.9-1.2-4.1,0l-24.4,24.4L76.5,68.5c-1.2-1.2-2.9-1.2-4.1,0s-1.2,2.9,0,4.1L96.7,97
		l-24.4,24.4c-1.2,1.2-1.2,2.9,0,4.1c0.6,0.6,1.5,0.9,2.1,0.9s1.5-0.3,2.1-0.9l24.4-24.4l24.4,24.4c0.6,0.6,1.5,0.9,2.1,0.9
		s1.5-0.3,2.1-0.9c1.2-1.2,1.2-2.9,0-4.1L104.9,97l24.4-24.4C130.5,71.5,130.5,69.7,129.3,68.5z"/>
</g>
</svg>
