<?xml version="1.0" encoding="utf-8"?>
<!-- Generator: Adobe Illustrator 19.2.0, SVG Export Plug-In . SVG Version: 6.00 Build 0)  -->
<svg version="1.1" id="Capa_1" xmlns="http://www.w3.org/2000/svg" xmlns:xlink="http://www.w3.org/1999/xlink" x="0px" y="0px"
	 viewBox="0 0 200 200" style="enable-background:new 0 0 200 200;" xml:space="preserve">
<style type="text/css">
	.st0{fill:#FFFFFF;}
</style>
<g>
	<g>
		<path class="st0" d="M173.5,93.5H26.5c-3.6,0-6.5,2.9-6.5,6.5c0,3.6,2.9,6.5,6.5,6.5h147.1c3.6,0,6.5-2.9,6.5-6.5
			C180,96.4,177.1,93.5,173.5,93.5z"/>
	</g>
</g>
<g>
	<g>
		<path class="st0" d="M173.5,44.5H26.5c-3.6,0-6.5,2.9-6.5,6.5c0,3.6,2.9,6.5,6.5,6.5h147.1c3.6,0,6.5-2.9,6.5-6.5
			C180,47.4,177.1,44.5,173.5,44.5z"/>
	</g>
</g>
<g>
	<g>
		<path class="st0" d="M173.5,142.6H26.5c-3.6,0-6.5,2.9-6.5,6.5s2.9,6.5,6.5,6.5h147.1c3.6,0,6.5-2.9,6.5-6.5
			S177.1,142.6,173.5,142.6z"/>
	</g>
</g>
</svg>
