<?xml version="1.0" encoding="utf-8"?>
<!-- Generator: Adobe Illustrator 19.2.0, SVG Export Plug-In . SVG Version: 6.00 Build 0)  -->
<svg version="1.1" id="Capa_1" xmlns="http://www.w3.org/2000/svg" xmlns:xlink="http://www.w3.org/1999/xlink" x="0px" y="0px"
	 viewBox="0 0 200 200" style="enable-background:new 0 0 200 200;" xml:space="preserve">
<style type="text/css">
	.st0{fill:#FFFFFF;}
</style>
<g>
	<path id="LinkedIn" class="st0" d="M175,113.6v56h-32.5v-52.3c0-13.1-4.7-22.1-16.5-22.1c-9,0-14.3,6-16.7,11.9
		c-0.9,2.1-1.1,5-1.1,7.9v54.6H75.9c0,0,0.4-88.5,0-97.7h32.5v13.9c-0.1,0.1-0.2,0.2-0.2,0.3h0.2v-0.3c4.3-6.6,12-16.1,29.3-16.1
		C159,69.6,175,83.6,175,113.6z M41.9,24.8c-11.1,0-18.4,7.3-18.4,16.9c0,9.4,7.1,16.9,18,16.9h0.2C53,58.6,60,51.1,60,41.7
		C59.8,32.1,53,24.8,41.9,24.8z M25.4,169.7h32.5V71.9H25.4V169.7z"/>
</g>
</svg>
