<?xml version="1.0" encoding="utf-8"?>
<!-- Generator: Adobe Illustrator 19.2.0, SVG Export Plug-In . SVG Version: 6.00 Build 0)  -->
<svg version="1.1" id="Capa_1" xmlns="http://www.w3.org/2000/svg" xmlns:xlink="http://www.w3.org/1999/xlink" x="0px" y="0px"
	 viewBox="0 0 200 200" style="enable-background:new 0 0 200 200;" xml:space="preserve">
<style type="text/css">
	.st0{fill:#FFFFFF;}
</style>
<g>
	<g>
		<path class="st0" d="M180.7,51.9c-5.9,2.6-12.2,4.4-18.9,5.2c6.8-4.1,12-10.5,14.5-18.2c-6.4,3.8-13.4,6.5-20.9,8
			c-6-6.4-14.6-10.4-24-10.4c-18.2,0-32.9,14.7-32.9,32.9c0,2.6,0.3,5.1,0.9,7.5c-27.4-1.4-51.6-14.5-67.9-34.4
			c-2.8,4.9-4.5,10.5-4.5,16.6c0,11.4,5.8,21.5,14.6,27.4c-5.4-0.2-10.5-1.7-14.9-4.1v0.4c0,16,11.4,29.3,26.4,32.3
			c-2.8,0.7-5.7,1.2-8.7,1.2c-2.1,0-4.2-0.2-6.2-0.6c4.2,13.1,16.4,22.6,30.8,22.9c-11.3,8.8-25.5,14.1-40.9,14.1
			c-2.7,0-5.3-0.2-7.9-0.5c14.6,9.4,31.9,14.8,50.5,14.8c60.6,0,93.7-50.2,93.7-93.7l-0.1-4.3C170.7,64.3,176.3,58.5,180.7,51.9z"/>
	</g>
</g>
</svg>
