<?xml version="1.0" encoding="utf-8"?>
<!-- Generator: Adobe Illustrator 22.0.1, SVG Export Plug-In . SVG Version: 6.00 Build 0)  -->
<svg version="1.1" id="Capa_1" xmlns="http://www.w3.org/2000/svg" xmlns:xlink="http://www.w3.org/1999/xlink" x="0px" y="0px"
	 viewBox="0 0 850.4 316.2" style="enable-background:new 0 0 850.4 316.2;" xml:space="preserve">
<style type="text/css">
	.st0{fill:#FFFFFF;}
	.st1{fill:#C72329;}
</style>
<path id="XMLID_3798_" class="st0" d="M319.3,160.6h-58.2c0-0.5,0-0.9,0-1.4c0-58-46.6-105.3-104.3-106.6V10.7h-4.7v41.9
	C94.4,53.9,47.9,101.2,47.9,159.2c0,0.5,0,0.9,0,1.4H6v4.7h42c3.1,55.2,48.4,99.3,104.1,100.5v41.9h4.7v-41.9
	c55.7-1.2,101-45.3,104.1-100.5h58.3V160.6z M256.5,159.2c0,0.5,0,0.9,0,1.4h-40.3v-8.2H213v8.2h-56.1v-58.7h8.2v-3.2h-8.2V88.5
	h13.3v-3.1h-13.3V72.7H174v-3.1h-17.1V57.3C212,58.6,256.5,103.8,256.5,159.2z M52.6,159.2c0-55.4,44.5-100.6,99.6-101.9v12.3H135
	v3.1h17.1v12.6h-13.3v3.1h13.3v10.2H144v3.2h8.2v58.7H97.3v-8.2h-3.2v8.2H83.9v-13.3h-3.2v13.3H68.2v-17.1H65v17.1H52.6
	C52.6,160.1,52.6,159.7,52.6,159.2z M52.8,165.3H65v17.1h3.2v-17.1h12.6v13.3h3.2v-13.3h10.2v8.2h3.2v-8.2h54.8v52H144v3.2h8.2v10.2
	h-13.3v3.2h13.3v12.6H135v3.2h17.1v11.4C99.1,259.8,55.9,217.9,52.8,165.3z M156.9,261.1v-11.4H174v-3.2h-17.1v-12.6h13.3v-3.2
	h-13.3v-10.2h8.2v-3.2h-8.2v-52H213v8.2h3.2v-8.2h40.1C253.1,217.9,210,259.8,156.9,261.1z"/>
<g id="XMLID_3768_">
	<path id="XMLID_3794_" class="st1" d="M149.4,132.7c0,0-0.2,0-0.3,0.1c-6.5,1.3-12,3.8-12,7.5c0,4.6,4.8,7.4,26.2,11.7
		c31.7,6.4,38.9,15.2,38.9,23.8c0,13-18.5,22-41.4,23.9c-0.2,0-0.5,0-0.5,0V193c0,0,0.2-0.1,0.3-0.1c4.7-1.4,8-3.5,8.2-6.9
		c0.4-5.9-12.9-8.3-21.5-10.3c-22.6-5-43.5-10.3-43.5-25c0-14.1,19.4-22.9,45.3-23.5c0.1,0,0.3,0,0.3,0V132.7z M103.8,177.7
		c0-2,0.7-4.6,5.7-4.6c3.6,0,6.1,1.5,6.6,3.1c2.5,7.5,12.5,16.8,28.3,18.5l4.6,0.2l0.4,0v5.3H149l-4.6,0c-15.6-0.2-19-3.5-25.4-3.5
		c-5.7,0-5.2,3.1-9.7,3.1c-5.6,0-5.6-3.5-5.6-3.9V177.7z M197.3,147.4c0,2.2-0.7,4.5-5.9,4.5c-4.3,0-5.9-1.8-6.4-3.7
		c-1.8-6.5-11.6-13.1-24.2-15.2c-0.2,0-0.5-0.1-0.5-0.1v-5.7c0,0,0.3,0,0.4,0c10.4,0.6,20.6,3.6,22.4,3.6c4.7,0,4.3-3.4,9-3.4
		c5.6,0,5.2,3.2,5.2,3.9V147.4z"/>
	<path id="XMLID_3788_" class="st1" d="M222.8,128.5h47.3v70.1h-47.3c-0.7,0-6.6-0.2-6.6-2.9c0-1.3,1.6-2.2,3.9-2.5
		c6.3-1,6.1-1.6,6.1-5.1V139c0-3.5,0.2-4-6.1-5.1c-2.3-0.4-3.9-1.2-3.9-2.5C216.1,128.7,222,128.5,222.8,128.5z M278.1,128.5h40v19
		c0,0.5-0.2,2.2-5.6,2.2c-3,0-3.9-0.9-4.8-2.3c-4.7-7.6-13.8-12.2-29.6-13.5V128.5z M278.1,159.9c7.5-1,10.9-4.7,12.5-8.2
		c0.9-1.6,2-3.1,5.7-3.1c5.5,0,4.7,3.4,4.7,4.1v20.2c0,0.7,0.9,4.1-4.7,4.1c-3.8,0-4.8-1.5-5.7-3.1c-1.6-3.6-5-7.2-12.5-8.2V159.9z
		 M278.1,193.2c14.5-0.9,25.6-6.1,30.5-13.6c1.3-1.4,2.3-2.9,5.6-2.9c5.7,0,5.2,2.8,5.2,3.2v18.7h-41.2V193.2z"/>
	<g id="XMLID_3769_">
		<path id="XMLID_3783_" class="st1" d="M389.4,200.1c-39.4-0.4-58-16-58-35.2c0-21.7,23.3-37,58-37.7v5.4
			c-8.6,0.9-11.5,4.8-11.5,8.7v44.4c0,3.9,2.9,7.8,11.5,8.9V200.1z M397.4,127.1c6.6,0.1,20.4,3.8,25.1,3.8c2.7,0,3.8-0.6,4.8-1.8
			c1.1-1.2,2.3-2,4.8-2c5.7,0,5.7,2.9,5.7,3.4v21.7c0,0.5,0,3.4-5.7,3.4c-3.8,0-5.9-1.6-6.6-3.4c-3.1-7.6-11.5-17.3-28.1-19.7V127.1
			z M432.7,178.3c3.4,0,5.4,1.5,5.4,3.2c-0.4,7.7-22,18.9-40.7,18.6v-5.4c13.8-1.6,25.4-6.4,29.4-13.3
			C427.9,179.7,429,178.3,432.7,178.3z"/>
		<path id="XMLID_3780_" class="st1" d="M518.6,200.1c-14.1,0-25.1-0.1-37.4-3.7c-16.1-4.7-18.3-8.3-18.3-12.9V139
			c0-3.5,0.2-4-6.1-5.1c-2.3-0.4-3.9-1.2-3.9-2.5c0-2.7,5.9-2.9,6.6-2.9h50.7c0.7,0,6.6,0.2,6.6,2.9c0,1.3-1.6,2.2-4,2.5
			c-6.3,1-6.1,1.6-6.1,5.1v45.1c0,0.9-1.6,8.3,11.8,10.4V200.1z M550.6,143.4c-2.9-11.7-14.3-8.1-14.3-12.1c0-2.9,7.3-2.7,9.3-2.7
			H566c2,0,9.3-0.2,9.3,2.7c0,4-11.5,0.4-14.3,12.1v35.3c-1.4,15.5-22.8,21.1-34.4,21.2v-5.5c16.5-2.6,22.9-7.5,24-15.8V143.4z"/>
		<path id="XMLID_3777_" class="st1" d="M600.1,139c0-3.5,0.2-4-6.1-5.1c-2.3-0.4-3.9-1.2-3.9-2.5c0-2.7,5.9-2.9,6.6-2.9H644v59.6
			c0,3.5-0.2,4,6.1,5.1c2.3,0.4,3.9,1.2,3.9,2.5c0,2.7-5.9,2.9-6.6,2.9h-50.7c-0.7,0-6.6-0.2-6.6-2.9c0-1.3,1.6-2.2,3.9-2.5
			c6.3-1,6.1-1.6,6.1-5.1V139z M652,128.5h0.9c11.6,0,23.8-0.2,34.6,2.5c12,3.1,18.1,8.2,18.3,15.4c0.4,10.8-13.3,15.5-31.5,17.7
			v0.2c15.9,1.2,31.2,3.7,31.5,13.6v8.2c0,0.8-0.5,2.7,1.8,2.7c2.9,0,3.4-2.7,7.7-2.7c2.3,0,5.2,1.4,5.2,2.7c0,2.7-5.9,6.2-9.8,7.8
			c-6.1,2.6-12.5,3.4-20.2,3.4c-7.7,0-14.7-1-20.3-3.9c-6.3-3.4-7.2-7.5-7.2-11.9v-6.4c0-4.3-0.2-9.6-10.9-10.1v-5.5
			c9.7-0.5,10.9-3.6,10.9-8.2v-11.3c0-4.7-2-6.9-10.9-8.6V128.5z"/>
		<path id="XMLID_3770_" class="st1" d="M731.6,128.5h47.3v70.1h-47.3c-0.7,0-6.6-0.2-6.6-2.9c0-1.3,1.6-2.2,3.9-2.5
			c6.3-1,6.1-1.6,6.1-5.1V139c0-3.5,0.2-4-6.1-5.1c-2.3-0.4-3.9-1.2-3.9-2.5C725,128.7,730.9,128.5,731.6,128.5z M787,128.5h40v19
			c0,0.5-0.2,2.2-5.6,2.2c-3.1,0-3.9-0.9-4.8-2.3c-4.7-7.6-13.8-12.2-29.6-13.5V128.5z M787,159.9c7.5-1,10.9-4.7,12.5-8.2
			c0.9-1.6,2-3.1,5.7-3.1c5.6,0,4.7,3.4,4.7,4.1v20.2c0,0.7,0.9,4.1-4.7,4.1c-3.8,0-4.8-1.5-5.7-3.1c-1.6-3.6-5-7.2-12.5-8.2V159.9z
			 M787,193.2c14.5-0.9,25.6-6.1,30.5-13.6c1.3-1.4,2.3-2.9,5.6-2.9c5.7,0,5.2,2.8,5.2,3.2v18.7H787V193.2z"/>
	</g>
</g>
<g>
	<path d="M591.9,219.2h4.7l2.7,12.6l2.7-12.6h4.8l-5.1,17.5H597l-2.8-12.8l-2.8,12.8h-4.8l-4.9-17.5h4.9l2.7,12.6L591.9,219.2z"/>
	<path d="M617.6,219.2h4.7l2.7,12.6l2.7-12.6h4.8l-5.1,17.5h-4.7l-2.8-12.8l-2.8,12.8h-4.8l-4.9-17.5h4.9l2.7,12.6L617.6,219.2z"/>
	<path d="M643.2,219.2h4.6l2.7,12.6l2.7-12.6h4.8l-5.1,17.5h-4.7l-2.8-12.8l-2.8,12.8h-4.8l-4.9-17.5h4.9l2.7,12.6L643.2,219.2z"/>
	<path d="M659.3,231.9h4.9v4.8h-4.9V231.9z"/>
	<path d="M672.1,231.1c0.1,0.8,0.3,1.4,0.6,1.7c0.6,0.6,1.6,0.9,3.2,0.9c0.9,0,1.6-0.1,2.2-0.4c0.5-0.3,0.8-0.7,0.8-1.2
		c0-0.5-0.2-0.9-0.6-1.2c-0.4-0.3-2-0.7-4.8-1.4c-2-0.5-3.4-1.1-4.2-1.9c-0.8-0.7-1.2-1.8-1.2-3.2c0-1.6,0.6-3,1.9-4.2
		c1.3-1.2,3.1-1.7,5.4-1.7c2.2,0,4,0.4,5.4,1.3c1.4,0.9,2.2,2.4,2.4,4.5h-4.6c-0.1-0.6-0.2-1.1-0.5-1.4c-0.5-0.6-1.4-0.9-2.6-0.9
		c-1,0-1.7,0.2-2.1,0.5c-0.4,0.3-0.6,0.7-0.6,1.1c0,0.5,0.2,0.9,0.7,1.1c0.5,0.2,2,0.7,4.8,1.3c1.8,0.4,3.2,1.1,4.1,1.9
		c0.9,0.9,1.4,2,1.4,3.3c0,1.7-0.6,3.2-1.9,4.3s-3.3,1.6-6,1.6c-2.8,0-4.8-0.6-6.1-1.7c-1.3-1.2-2-2.6-2-4.4H672.1z"/>
	<path d="M698.3,219.6c1.2,0.5,2.2,1.4,3,2.6c0.7,1,1.2,2.2,1.4,3.6c0.1,0.8,0.2,2,0.2,3.5h-12.8c0.1,1.8,0.7,3,1.8,3.7
		c0.7,0.4,1.5,0.7,2.5,0.7c1,0,1.9-0.3,2.5-0.8c0.4-0.3,0.7-0.7,0.9-1.2h4.7c-0.1,1-0.7,2.1-1.7,3.2c-1.6,1.7-3.8,2.6-6.6,2.6
		c-2.3,0-4.4-0.7-6.2-2.2s-2.7-3.8-2.7-7c0-3,0.8-5.4,2.4-7c1.6-1.6,3.7-2.4,6.3-2.4C695.7,218.7,697,219,698.3,219.6z M691.4,223.5
		c-0.6,0.7-1.1,1.6-1.2,2.7h7.9c-0.1-1.2-0.5-2.1-1.2-2.8c-0.7-0.6-1.6-0.9-2.7-0.9C693,222.5,692,222.8,691.4,223.5z"/>
	<path d="M715.6,225.5c-0.1-0.7-0.3-1.2-0.7-1.8c-0.5-0.7-1.3-1.1-2.4-1.1c-1.5,0-2.6,0.8-3.2,2.3c-0.3,0.8-0.5,1.9-0.5,3.2
		c0,1.3,0.2,2.3,0.5,3.1c0.5,1.5,1.6,2.2,3.1,2.2c1.1,0,1.8-0.3,2.3-0.9c0.5-0.6,0.7-1.3,0.8-2.3h4.7c-0.1,1.4-0.6,2.7-1.5,4
		c-1.4,2-3.6,3-6.4,3c-2.8,0-4.9-0.8-6.2-2.5c-1.3-1.7-2-3.8-2-6.5c0-3,0.7-5.3,2.2-7c1.5-1.7,3.5-2.5,6.1-2.5c2.2,0,4,0.5,5.4,1.5
		c1.4,1,2.2,2.7,2.5,5.2H715.6z"/>
	<path d="M728,219.2v10.6c0,1,0.1,1.7,0.4,2.3c0.4,0.9,1.2,1.3,2.4,1.3c1.6,0,2.6-0.6,3.2-1.9c0.3-0.7,0.4-1.6,0.4-2.7v-9.5h4.6
		v17.5h-4.5v-2.5c0,0.1-0.2,0.2-0.3,0.5c-0.2,0.3-0.4,0.5-0.6,0.7c-0.7,0.6-1.4,1.1-2.1,1.3c-0.7,0.2-1.5,0.4-2.4,0.4
		c-2.6,0-4.3-0.9-5.2-2.8c-0.5-1-0.8-2.5-0.8-4.6v-10.6H728z"/>
	<path d="M753.3,218.8c0.1,0,0.2,0,0.4,0v4.7c-0.3,0-0.5-0.1-0.8-0.1c-0.2,0-0.4,0-0.5,0c-1.8,0-3.1,0.6-3.7,1.8
		c-0.4,0.7-0.5,1.7-0.5,3.1v8.4h-4.6v-17.5h4.4v3.1c0.7-1.2,1.3-2,1.9-2.4c0.9-0.7,2-1.1,3.3-1.1
		C753.2,218.8,753.3,218.8,753.3,218.8z"/>
	<path d="M767.8,219.6c1.2,0.5,2.2,1.4,3,2.6c0.7,1,1.2,2.2,1.4,3.6c0.1,0.8,0.2,2,0.2,3.5h-12.8c0.1,1.8,0.7,3,1.8,3.7
		c0.7,0.4,1.5,0.7,2.5,0.7c1,0,1.9-0.3,2.5-0.8c0.4-0.3,0.7-0.7,0.9-1.2h4.7c-0.1,1-0.7,2.1-1.7,3.2c-1.6,1.7-3.8,2.6-6.6,2.6
		c-2.3,0-4.4-0.7-6.2-2.2c-1.8-1.4-2.7-3.8-2.7-7c0-3,0.8-5.4,2.4-7c1.6-1.6,3.7-2.4,6.3-2.4C765.2,218.7,766.6,219,767.8,219.6z
		 M761,223.5c-0.6,0.7-1.1,1.6-1.2,2.7h7.9c-0.1-1.2-0.5-2.1-1.2-2.8c-0.7-0.6-1.6-0.9-2.7-0.9C762.5,222.5,761.6,222.8,761,223.5z"
		/>
	<path d="M774.7,231.9h4.9v4.8h-4.9V231.9z"/>
	<path d="M805.8,219.3c0.8,0.3,1.4,0.8,2,1.6c0.5,0.6,0.8,1.4,1,2.3c0.1,0.6,0.2,1.5,0.2,2.6l0,11.1h-4.7v-11.2
		c0-0.7-0.1-1.2-0.3-1.6c-0.4-0.8-1.2-1.2-2.3-1.2c-1.3,0-2.1,0.5-2.6,1.6c-0.2,0.6-0.4,1.2-0.4,2v10.4h-4.6v-10.4
		c0-1-0.1-1.8-0.3-2.3c-0.4-0.8-1.1-1.3-2.3-1.3c-1.3,0-2.2,0.4-2.6,1.3c-0.2,0.5-0.4,1.2-0.4,2.2v10.6h-4.6v-17.5h4.5v2.6
		c0.6-0.9,1.1-1.6,1.6-1.9c0.9-0.7,2-1,3.5-1c1.3,0,2.4,0.3,3.2,0.9c0.7,0.5,1.2,1.2,1.5,2.1c0.6-1,1.3-1.8,2.2-2.3
		c0.9-0.5,2-0.7,3.2-0.7C804.3,218.8,805,219,805.8,219.3z"/>
	<path d="M811.4,236.7l6-8.9l-5.7-8.6h5.6l2.9,5.1l2.9-5.1h5.5l-5.8,8.5l6,9h-5.7l-3-5.3l-3,5.3H811.4z"/>
</g>
</svg>
