<?xml version="1.0" encoding="utf-8"?>
<!-- Generator: Adobe Illustrator 19.2.0, SVG Export Plug-In . SVG Version: 6.00 Build 0)  -->
<svg version="1.1" id="Capa_1" xmlns="http://www.w3.org/2000/svg" xmlns:xlink="http://www.w3.org/1999/xlink" x="0px" y="0px"
	 viewBox="0 0 200 200" style="enable-background:new 0 0 200 200;" xml:space="preserve">
<style type="text/css">
	.st0{fill:#010002;}
	.st1{fill:#030104;}
</style>
<g>
	<g>
		<path d="M176.7,137c-20.2-3.3-29.4-23.8-30.4-26.1c0,0-0.1-0.2-0.1-0.3c-1-2.1-1.3-3.7-0.7-5c1.1-2.5,5.6-3.9,8.4-4.8
			c0.8-0.3,1.6-0.5,2.2-0.7c5.8-2.3,8.7-5.2,8.7-8.7c-0.1-2.8-2.2-5.3-5.5-6.5c-1.1-0.5-2.4-0.7-3.7-0.7c-0.9,0-2.2,0.1-3.5,0.7
			c-2.5,1.2-4.7,1.8-6.3,1.8c-0.7,0-1.3-0.2-1.7-0.3c0.1-0.9,0.1-1.8,0.2-2.7l0-0.5c0.7-10.9,1.5-24.5-2.1-32.6
			c-10.7-24.1-33.5-25.9-40.2-25.9l-3.1,0c-6.7,0-29.4,1.9-40.2,25.9c-3.6,8.1-2.8,21.7-2.1,32.6c0.1,1.1,0.1,2.1,0.2,3.1
			c-0.5,0.2-1.1,0.3-2,0.3c-1.9,0-4.2-0.6-6.9-1.9c-3.8-1.8-10.7,0.6-11.7,5.5c-0.5,2.7,0.6,6.5,8.6,9.7c0.6,0.2,1.4,0.5,2.4,0.8
			c2.7,0.9,7.2,2.3,8.2,4.8c0.5,1.2,0.3,2.9-0.8,5.2c-0.4,0.9-9.9,22.6-30.9,26c-2.2,0.4-3.7,2.3-3.6,4.5c0,0.6,0.2,1.2,0.4,1.8
			c1.8,4.1,8.5,7,21.2,9c0.3,0.7,0.6,2.2,0.8,3c0.3,1.2,0.5,2.5,0.9,3.8c0.4,1.3,1.5,3.5,4.8,3.5c1.1,0,2.4-0.3,3.8-0.5
			c2-0.4,4.8-0.9,8.2-0.9c1.9,0,3.9,0.2,5.9,0.5c3.8,0.6,7.1,3,11,5.7c5.7,4,10.8,7.1,21.1,7.1c0.3,0,0.5,0,0.8,0c0.4,0,0.8,0,1.2,0
			c9,0,17-2.4,23.6-7.1c3.7-2.6,7.2-5.1,10.9-5.7c2-0.3,4-0.5,5.9-0.5c3.3,0,5.9,0.4,8.3,0.9c1.6,0.3,2.8,0.5,4,0.5
			c2.3,0,4-1.3,4.7-3.5c0.4-1.3,0.7-2.5,0.9-3.8c0.1-0.7,0.5-2.3,0.8-3c12.5-2,18.9-4.7,20.6-8.9c0.3-0.6,0.4-1.2,0.5-1.9
			C180.4,139.3,178.9,137.4,176.7,137z"/>
	</g>
</g>
</svg>
