<?xml version="1.0" encoding="utf-8"?>
<!-- Generator: Adobe Illustrator 19.2.0, SVG Export Plug-In . SVG Version: 6.00 Build 0)  -->
<svg version="1.1" id="Capa_1" xmlns="http://www.w3.org/2000/svg" xmlns:xlink="http://www.w3.org/1999/xlink" x="0px" y="0px"
	 viewBox="0 0 200 200" style="enable-background:new 0 0 200 200;" xml:space="preserve">
<style type="text/css">
	.st0{fill:#010002;}
	.st1{fill:#030104;}
</style>
<g>
	<g>
		<path class="st0" d="M145.9,120.6c-8.8,0-16.5,4.2-21.6,10.6l-46.9-24c0.6-2.3,1.1-4.7,1.1-7.2c0-2.7-0.5-5.3-1.3-7.8l46.7-23.9
			c5,6.7,13,11.1,22,11.1c15.3,0,27.6-12.4,27.6-27.6c0-15.3-12.4-27.6-27.6-27.6c-15.2,0-27.6,12.4-27.6,27.6
			c0,2.5,0.4,4.9,1.1,7.2L72.4,83c-5.1-6.4-12.8-10.6-21.6-10.6c-15.3,0-27.6,12.4-27.6,27.6s12.4,27.6,27.6,27.6
			c9,0,17-4.4,22-11.1l46.7,23.9c-0.7,2.5-1.3,5.1-1.3,7.8c0,15.3,12.4,27.6,27.6,27.6c15.3,0,27.6-12.4,27.6-27.6
			C173.5,132.9,161.2,120.6,145.9,120.6z"/>
	</g>
</g>
</svg>
