<?xml version="1.0" encoding="utf-8"?>
<!-- Generator: Adobe Illustrator 19.2.0, SVG Export Plug-In . SVG Version: 6.00 Build 0)  -->
<svg version="1.1" id="Capa_1" xmlns="http://www.w3.org/2000/svg" xmlns:xlink="http://www.w3.org/1999/xlink" x="0px" y="0px"
	 viewBox="0 0 200 200" style="enable-background:new 0 0 200 200;" xml:space="preserve">
<style type="text/css">
	.st0{fill:#010002;}
	.st1{fill:#030104;}
</style>
<g>
	<path d="M139.9,20.2l-20.7,0c-23.3,0-38.3,15.4-38.3,39.3v18.1H60.1c-1.8,0-3.3,1.5-3.3,3.3v26.3c0,1.8,1.5,3.3,3.3,3.3h20.8v66.3
		c0,1.8,1.5,3.3,3.3,3.3h27.2c1.8,0,3.3-1.5,3.3-3.3v-66.3H139c1.8,0,3.3-1.5,3.3-3.3l0-26.3c0-0.9-0.3-1.7-1-2.3s-1.4-1-2.3-1
		h-24.4V62.3c0-7.4,1.8-11.1,11.4-11.1l14,0c1.8,0,3.3-1.5,3.3-3.3V23.5C143.2,21.7,141.7,20.2,139.9,20.2z"/>
</g>
</svg>
